<?xml version="1.0" encoding="UTF-8"?>
<svg id="Layer_2" data-name="Layer 2" xmlns="http://www.w3.org/2000/svg" viewBox="0 0 666.67 533.33">
  <defs>
    <style>
      .cls-1 {
        fill: #f5f7fa;
      }
    </style>
  </defs>
  <g id="Layer_1-2" data-name="Layer 1">
    <path id="_形状" data-name="形状" class="cls-1" d="M333.33,0c28.51,0,57.72.75,86.06,1.93l33.48,1.6h0l32.04,1.89h0l30,2.06h0l27.36,2.11h0c61.27,4.97,110.5,52.38,116.49,114.11l1.33,14.15h0l2.5,30.33c2.34,31.44,4.06,65.73,4.06,98.48s-1.73,67.04-4.06,98.48l-2.5,30.33c-.44,4.84-.88,9.57-1.33,14.15-5.99,61.72-55.23,109.14-116.49,114.11l-27.36,2.11h0l-30,2.06h0l-32.04,1.89h0l-33.48,1.6c-28.33,1.18-57.54,1.93-86.06,1.93s-57.72-.75-86.06-1.93l-33.48-1.6h0l-32.04-1.89h0l-30-2.06h0l-27.36-2.11h0c-61.27-4.97-110.5-52.38-116.49-114.11l-1.33-14.15h0l-2.5-30.33c-2.34-31.44-4.06-65.73-4.06-98.48s1.73-67.04,4.06-98.48l2.5-30.33c.44-4.84.88-9.57,1.33-14.15C13.88,61.98,63.12,14.57,124.38,9.6l27.36-2.11h0l30-2.06h0l32.04-1.89h0l33.48-1.6c28.33-1.18,57.54-1.93,86.06-1.93ZM333.33,66.67c-27.51,0-55.8.72-83.34,1.87l-32.59,1.56h0l-31.29,1.85h0l-29.4,2.02h0l-26.93,2.08h0c-29.64,2.41-52.71,25.04-55.53,54.1-3.91,40.29-7.58,90.46-7.58,136.52s3.67,96.24,7.58,136.52c2.82,29.06,25.89,51.69,55.53,54.1l26.93,2.08h0l29.4,2.02h0l31.29,1.85h0l32.59,1.56c27.54,1.15,55.83,1.87,83.34,1.87s55.8-.72,83.34-1.87l32.59-1.56h0l31.29-1.85h0l29.4-2.02h0l26.93-2.08h0c29.64-2.41,52.71-25.04,55.53-54.1,3.91-40.29,7.58-90.46,7.58-136.52s-3.67-96.24-7.58-136.52c-2.82-29.06-25.89-51.69-55.53-54.1l-26.93-2.08h0l-29.4-2.02h0l-31.29-1.85h0l-32.59-1.56c-27.54-1.15-55.83-1.87-83.34-1.87ZM266.67,185.84c0-14.37,14.52-23.71,27.29-18.63l2.71,1.31,140,80.83c12.31,7.1,13.25,24.05,2.84,32.67l-2.84,1.97-140,80.83c-12.44,7.18-27.79-.72-29.78-14.32l-.22-3v-161.66Z"/>
  </g>
</svg>