<svg width="13" height="11" viewBox="0 0 13 11" fill="none" xmlns="http://www.w3.org/2000/svg">
<path d="M12.5728 1.94603C12.4956 1.85873 12.371 1.83678 12.2689 1.89062C12.2054 1.92407 12.0859 1.96798 11.9441 2.01137C12.123 1.76673 12.2669 1.49281 12.3304 1.2466C12.3578 1.14048 12.3177 1.02861 12.2303 0.96536C12.1428 0.902631 12.0265 0.902631 11.9391 0.96536C11.8013 1.06416 11.1366 1.36108 10.7163 1.45726C9.76639 0.60153 8.66101 0.512663 7.51191 1.20269C6.5778 1.76359 6.37451 2.90422 6.41415 3.59947C4.27605 3.38776 2.94704 2.22622 2.19894 1.26489C2.14659 1.19746 2.06223 1.16191 1.98294 1.16714C1.8996 1.17341 1.82438 1.22098 1.78169 1.29469C1.42796 1.90891 1.32988 2.58796 1.49911 3.25864C1.59161 3.62456 1.75323 3.9471 1.94076 4.20847C1.85081 4.16299 1.7639 4.10601 1.68208 4.03805C1.60686 3.97428 1.50166 3.96226 1.41272 4.0046C1.32429 4.04799 1.26787 4.13999 1.26787 4.24088C1.26787 5.39249 1.96821 6.16092 2.62229 6.56239C2.51658 6.54932 2.40629 6.52527 2.29499 6.49025C2.19945 6.46045 2.09577 6.49025 2.0297 6.56762C1.96363 6.64446 1.94788 6.75424 1.98904 6.84781C2.35649 7.68368 3.05276 8.2587 3.91419 8.46727C3.16202 8.92154 2.15523 9.14423 1.23331 9.03497C1.11388 9.01772 1.00004 9.09561 0.96243 9.21375C0.924822 9.33189 0.974119 9.46153 1.07932 9.52217C2.47795 10.3298 3.74241 10.6184 4.8351 10.6184C6.42533 10.6184 7.65269 10.0078 8.39978 9.49708C10.4139 8.12226 11.6692 5.65386 11.4944 3.44526C11.8171 3.20009 12.2999 2.7474 12.5992 2.26072C12.6612 2.16245 12.6501 2.0328 12.5728 1.94603Z" fill="white"/>
</svg>
