<svg width="12" height="13" viewBox="0 0 12 13" fill="none" xmlns="http://www.w3.org/2000/svg">
<path d="M1.64369 3.6629C2.42298 3.6629 3.05473 3.03115 3.05473 2.25186C3.05473 1.47256 2.42298 0.84082 1.64369 0.84082C0.864394 0.84082 0.232651 1.47256 0.232651 2.25186C0.232651 3.03115 0.864394 3.6629 1.64369 3.6629Z" fill="#F5F7FA"/>
<path d="M2.81942 4.60449H0.467686C0.337871 4.60449 0.232513 4.70985 0.232513 4.83967V11.8949C0.232513 12.0247 0.337871 12.13 0.467686 12.13H2.81942C2.94923 12.13 3.05459 12.0247 3.05459 11.8949V4.83967C3.05459 4.70985 2.94923 4.60449 2.81942 4.60449Z" fill="#F5F7FA"/>
<path d="M9.8233 4.21174C8.81817 3.86744 7.56093 4.16987 6.80697 4.71218C6.7811 4.61106 6.68891 4.5358 6.57932 4.5358H4.22759C4.09777 4.5358 3.99242 4.64116 3.99242 4.77098V11.8262C3.99242 11.956 4.09777 12.0613 4.22759 12.0613H6.57932C6.70914 12.0613 6.81449 11.956 6.81449 11.8262V6.75584C7.19453 6.42847 7.68416 6.32406 8.0849 6.49432C8.4734 6.65847 8.69588 7.05921 8.69588 7.59305V11.8262C8.69588 11.956 8.80124 12.0613 8.93105 12.0613H11.2828C11.4126 12.0613 11.518 11.956 11.518 11.8262V7.11941C11.4911 5.18676 10.582 4.47137 9.8233 4.21174Z" fill="#F5F7FA"/>
</svg>
