<svg width="8" height="13" viewBox="0 0 8 13" fill="none" xmlns="http://www.w3.org/2000/svg">
<path d="M5.53513 2.76283H7.0649C7.20563 2.76283 7.31986 2.6552 7.31986 2.52258V1.08107C7.31986 0.948453 7.20563 0.84082 7.0649 0.84082H5.53513C3.98905 0.84082 2.73056 2.02622 2.73056 3.48359V5.16535H0.945833C0.805095 5.16535 0.690872 5.27298 0.690872 5.4056V6.84711C0.690872 6.97973 0.805095 7.08736 0.945833 7.08736H2.73056V12.1326C2.73056 12.2653 2.84478 12.3729 2.98552 12.3729H4.51529C4.65602 12.3729 4.77025 12.2653 4.77025 12.1326V7.08736H6.55497C6.66461 7.08736 6.762 7.02105 6.79719 6.92303L7.30711 5.48152C7.33311 5.40848 7.31986 5.32776 7.27192 5.26481C7.22348 5.20235 7.14699 5.16535 7.0649 5.16535H4.77025V3.48359C4.77025 3.08621 5.11342 2.76283 5.53513 2.76283Z" fill="#F5F7FA"/>
</svg>
