<svg width="12" height="13" viewBox="0 0 12 13" fill="none" xmlns="http://www.w3.org/2000/svg">
<g clip-path="url(#clip0_5_1188)">
<path d="M6.10175 3.5733C4.48235 3.5733 3.17613 4.87952 3.17613 6.49892C3.17613 8.11832 4.48235 9.42454 6.10175 9.42454C7.72115 9.42454 9.02737 8.11832 9.02737 6.49892C9.02737 4.87952 7.72115 3.5733 6.10175 3.5733ZM6.10175 8.40095C5.05525 8.40095 4.19971 7.54797 4.19971 6.49892C4.19971 5.44987 5.0527 4.59689 6.10175 4.59689C7.15079 4.59689 8.00378 5.44987 8.00378 6.49892C8.00378 7.54797 7.14825 8.40095 6.10175 8.40095ZM9.82943 3.45363C9.82943 3.83302 9.52388 4.13602 9.14704 4.13602C8.76765 4.13602 8.46465 3.83047 8.46465 3.45363C8.46465 3.07679 8.7702 2.77124 9.14704 2.77124C9.52388 2.77124 9.82943 3.07679 9.82943 3.45363ZM11.7671 4.1462C11.7238 3.23211 11.515 2.42241 10.8454 1.7553C10.1783 1.08818 9.36856 0.879392 8.45446 0.83356C7.51236 0.780089 4.68859 0.780089 3.74649 0.83356C2.83494 0.876846 2.02523 1.08564 1.35558 1.75275C0.685918 2.41986 0.479673 3.22956 0.433841 4.14366C0.38037 5.08576 0.38037 7.90953 0.433841 8.85164C0.477127 9.76573 0.685918 10.5754 1.35558 11.2425C2.02523 11.9097 2.83239 12.1184 3.74649 12.1643C4.68859 12.2178 7.51236 12.2178 8.45446 12.1643C9.36856 12.121 10.1783 11.9122 10.8454 11.2425C11.5125 10.5754 11.7213 9.76573 11.7671 8.85164C11.8206 7.90953 11.8206 5.08831 11.7671 4.1462ZM10.55 9.86249C10.3514 10.3616 9.96692 10.746 9.46532 10.9472C8.71418 11.2451 6.93182 11.1763 6.10175 11.1763C5.27168 11.1763 3.48677 11.2425 2.73818 10.9472C2.23912 10.7486 1.85464 10.3641 1.65348 9.86249C1.35558 9.11135 1.42432 7.32899 1.42432 6.49892C1.42432 5.66885 1.35812 3.88394 1.65348 3.13535C1.85209 2.63629 2.23657 2.25181 2.73818 2.05066C3.48932 1.75275 5.27168 1.8215 6.10175 1.8215C6.93182 1.8215 8.71673 1.7553 9.46532 2.05066C9.96438 2.24926 10.3489 2.63374 10.55 3.13535C10.8479 3.88649 10.7792 5.66885 10.7792 6.49892C10.7792 7.32899 10.8479 9.1139 10.55 9.86249Z" fill="#FBFBFB"/>
</g>
<defs>
<clipPath id="clip0_5_1188">
<rect width="11.4135" height="11.4135" fill="white" transform="translate(0.393738 0.791992)"/>
</clipPath>
</defs>
</svg>
